<svg xmlns="http://www.w3.org/2000/svg" xmlns:xlink="http://www.w3.org/1999/xlink" viewBox="0 0 459.54 237.78"><defs><style>.cls-1{fill:url(#Orange_Yellow);}.cls-2{fill:url(#Orange_Yellow-2);}.cls-3{fill:url(#Orange_Yellow-3);}.cls-4{fill:url(#Orange_Yellow-4);}.cls-5{fill:url(#Orange_Yellow-5);}.cls-6{fill:url(#Orange_Yellow-6);}.cls-7{fill:url(#Orange_Yellow-7);}.cls-8{fill:url(#Orange_Yellow-8);}.cls-9{fill:url(#Orange_Yellow-9);}.cls-10{fill:url(#Orange_Yellow-10);}.cls-11{fill:url(#Orange_Yellow-11);}.cls-12{fill:#ec008c;}.cls-13,.cls-14{font-size:32.16px;font-family:Airstrike, Airstrike;}.cls-13{fill:#ed1c24;}.cls-14{fill:#f7941d;}</style><linearGradient id="Orange_Yellow" x1="329.7" y1="438.5" x2="569.39" y2="438.5" gradientUnits="userSpaceOnUse"><stop offset="0" stop-color="#fff33b"/><stop offset="0.04" stop-color="#fee72e"/><stop offset="0.12" stop-color="#fed51b"/><stop offset="0.2" stop-color="#fdca10"/><stop offset="0.28" stop-color="#fdc70c"/><stop offset="0.67" stop-color="#f3903f"/><stop offset="0.89" stop-color="#ed683c"/><stop offset="1" stop-color="#e93e3a"/></linearGradient><linearGradient id="Orange_Yellow-2" x1="491.2" y1="397.66" x2="502.86" y2="397.66" xlink:href="#Orange_Yellow"/><linearGradient id="Orange_Yellow-3" x1="465.68" y1="372.71" x2="477.38" y2="372.71" xlink:href="#Orange_Yellow"/><linearGradient id="Orange_Yellow-4" x1="510.07" y1="427.62" x2="521.72" y2="427.62" xlink:href="#Orange_Yellow"/><linearGradient id="Orange_Yellow-5" x1="511.18" y1="460.92" x2="522.55" y2="460.92" xlink:href="#Orange_Yellow"/><linearGradient id="Orange_Yellow-6" x1="498.57" y1="487.37" x2="510.07" y2="487.37" xlink:href="#Orange_Yellow"/><linearGradient id="Orange_Yellow-7" x1="471.78" y1="504.49" x2="482.33" y2="504.49" xlink:href="#Orange_Yellow"/><linearGradient id="Orange_Yellow-8" x1="349.73" y1="400.12" x2="458.51" y2="400.12" xlink:href="#Orange_Yellow"/><linearGradient id="Orange_Yellow-9" x1="392.49" y1="462.53" x2="438.46" y2="462.53" xlink:href="#Orange_Yellow"/><linearGradient id="Orange_Yellow-10" x1="382.19" y1="414.25" x2="397.19" y2="414.25" xlink:href="#Orange_Yellow"/><linearGradient id="Orange_Yellow-11" x1="381.89" y1="483.7" x2="393" y2="483.7" xlink:href="#Orange_Yellow"/></defs><title>weddingbook</title><g id="Layer_1_copy" data-name="Layer 1 copy"><path class="cls-1" d="M535,530.62c-2.45,1.11-4.72-.69-5.77-1.83a21.83,21.83,0,0,1-3.72-4.54c-3.63-6.75-2.46-15.63,2.86-20.83,4.86-4.75,10.6-6.23,17.42-4.27a67.15,67.15,0,0,1,8.71,3c1.64.72,2.58,2,3.81,3,6.74,5.37,11.39,12.06,11.12,21.05-.24,7.93-3.56,14.43-9.46,20A46.55,46.55,0,0,1,548,554a28.13,28.13,0,0,1-9.76,2.49c-9.95,1.91-25.94.19-29.1-.4-3.61-.68-7.16-1.67-10.74-2.51-5.58-1.32-10.63-4.07-16-5.85-3.84-1.27-7-3.64-10.6-5.29-4.81-2.22-9.35-5-14-7.58-5.32-3-10.69-6-16-9-4-2.32-8.34-4.25-12.36-6.66-3.17-1.9-6.71-4-10.59-4.59a11.69,11.69,0,0,1-3.17-1.34c-6.62-2.75-13.63-3.76-20.57-5.17-9-1.84-17.85-.74-26.59,1.57-2.28.6-4.38,1.85-6.59,2.71-.59.23-.53.68-.66,1.06-.23.66.57.58.79.67a4.91,4.91,0,0,0,1.85.23,28.76,28.76,0,0,1,9.24,1.62c3.7,1.31,7.47,2.46,11.12,3.94a49.81,49.81,0,0,1,8.35,4.59,50.84,50.84,0,0,1,5.9,4.26c2.92,2.57,5.74,5.27,8.43,8.08a74,74,0,0,0,14.41,11.6,39.85,39.85,0,0,0,9.76,3.93c4.13,1.26,8.25-.75,12.14-2.5.49,1,0,1.73-.8,2.52a14.11,14.11,0,0,1-8.93,3.79,34.43,34.43,0,0,1-22-5A137.9,137.9,0,0,1,396,539.34a72.86,72.86,0,0,0-14.16-9.58c-6.43-3.29-13.17-6.13-20.29-7.38-4.05-.71-8.11.89-11.9,2.81-6.55,3.3-10.95,8.65-15.17,14.44-1.16,1.61-1.67,4.44-4.77,4.8,1.58-7.63,5.44-13.88,10.08-19.77,3.6-4.58,8.79-7.34,12.89-11.28,6.8-6.53,15.36-9.23,23.94-11.74a92,92,0,0,1,21.23-3.72c8.11-.39,16.28-1.3,24.4-.06,3.32.51,6.59-.39,9.85,0,5.49.63,10.9-.2,16.29-.83,2.09-.24,4-1.67,6-2.6A43.25,43.25,0,0,0,469,483.7a44.55,44.55,0,0,0,9.88-18.18,42.25,42.25,0,0,0-.54-22.77c-2.41-7.73-6.76-14.5-11.57-21-2.85-3.85-5.87-7.57-9-11.15s-6.75-7.32-9.92-11.07a153.67,153.67,0,0,1-11.67-15.74,82.06,82.06,0,0,1-8.18-16.4,44.08,44.08,0,0,1-2.33-22.07c1.42-9.27,5.84-16.58,13.64-21.57,5.06-3.24,10.77-5.39,16.9-3.28,8.66,3,15.3,8.83,15.49,18.37.2,10.18-9,16.33-17.58,15.73-4.85-.34-10.9-6.12-10.06-12,.36-2.43,2.17-4.22,3.25-6.34a1.35,1.35,0,0,1,2-.5c1.3.89-.13,1.24-.32,1.61-3.38,6.55-2.23,7.79,1.7,11.52,3.09,2.93,6.45,1.48,9.64-.21,7.26-3.85,8.11-14.12,1.25-18.19-7.78-4.63-13.64-4.42-20.67,2.15a19.63,19.63,0,0,0-6.5,15.14c.06,5.48.3,10.79,2.32,16a36,36,0,0,0,6.78,10.53,132.82,132.82,0,0,0,16.33,16.19c5,4.07,9.53,8.6,14.16,13A87,87,0,0,1,484.3,416a75.86,75.86,0,0,1,10.37,19.52c2.91,8.37,4.41,16.89,2.7,25.83a53.35,53.35,0,0,1-7.81,20.2c-4.19,6.23-10.05,10.42-16.45,14.13a52.35,52.35,0,0,1-10.3,4.81c-6.17,2-12,5.27-18.77,5.13-.75,0-1.89-.44-2.21.91s.63,1.46,1.6,1.9a171.86,171.86,0,0,1,20.6,11c4.07,2.56,8.21,5.19,12.59,7.4,4.65,2.35,9.29,4.87,13.83,7.51a33,33,0,0,0,9.2,4c1.32.29,17.93,7.59,26.18,7.84,5.59.49,16-.25,16-.25,2-.36,3.76-2,5.77-2.61,6.29-1.92,9.63-7,12.17-12.27a13.34,13.34,0,0,0-.89-13.19c-1.47-2.34-2.37-5.08-4.71-6.73-5-3.52-9.83-7.15-16.53-6.67-3.08.22-5.06,2.07-6.75,4a12.94,12.94,0,0,0,1.84,19.14c.8.59,2.18,1.24,2.37,2.65A.62.62,0,0,1,535,530.62ZM459.46,396.25A9.27,9.27,0,0,0,463,400.2c.88.66,2.18,1.39,2.33,2.25.5,3.11,3.06,4.7,4.81,6.71,8,9.17,14.44,19.13,18,30.85a51,51,0,0,1,.17,28.28c-1.62,6.08-4.8,11.3-8.37,16.34-.41.58-1.36,1.14-.64,1.82.88.85,1.41-.28,2-.78,5.62-5.1,8.95-11.66,11-18.75a46.41,46.41,0,0,0,1.16-20.45,58.32,58.32,0,0,0-6.51-18.82A96.3,96.3,0,0,0,477,413.23c-4.16-5.16-9-9.53-13.71-14.13C462.33,398.11,461.5,396.62,459.46,396.25ZM522.8,549.83m-6.17-.83s8.29,3.58,26,2.1c5-.42,9.28-3.63,13.6-6.14a2.44,2.44,0,0,0,1-2.81c-.56-1.07-1.62-.39-2.52.26a37,37,0,0,1-11.63,5.6c-4.74,1.31-9.75,1.12-15,1-1.8,0-7.7-.7-6.26-.54l-.54-.13a167.14,167.14,0,0,1-35.57-12.84c-4.09-2-7.31-3.71-8.14-4.17-3.53-1.92-5.43-3.1-8.8-5.07s-6.07-3.44-11.7-6.53c-10.14-5.57-15.21-8.35-18.78-10-11.08-5-8.3-2.08-18.37-5.06a6.3,6.3,0,0,0-4.41.15c-.2.09-1.29.63-1.23,1.18s1.17.74,3.29,1.42c1.63.52-1.05-.24,3.19,1.15,6.78,2.23,10.92,3.3,16.22,5.47.89.36,2.32,1,4.06,1.79,4.66,2.19,6.34,3.49,11.22,6.23,3.87,2.18,3.27,1.62,9.59,5,4.44,2.4,5.74,3.22,8.64,4.8,0,0,6.57,3.6,14.19,7,12.15,5.41,26.17,8.78,32,10.08M413.42,505.84c-.05-.06-.09-.15-.15-.16s-.12.07-.18.12.1.14.15.15S413.36,505.88,413.42,505.84Z" transform="translate(-109.85 -319.61)"/><path class="cls-2" d="M497,403.49a5.81,5.81,0,0,1-5.84-5.91c.06-2.65,3.39-5.79,6.1-5.75a6.12,6.12,0,0,1,5.56,5.76A6,6,0,0,1,497,403.49Z" transform="translate(-109.85 -319.61)"/><path class="cls-3" d="M471.47,378.52c-3,0-5.92-3-5.78-5.9.09-2,3.57-5.79,5.19-5.71,3.79.19,6.51,2.61,6.5,5.79C477.36,376.38,475.2,378.52,471.47,378.52Z" transform="translate(-109.85 -319.61)"/><path class="cls-4" d="M521.72,427.51c0,2.7-2.89,5.91-5.29,5.94-3,0-6.46-3.45-6.36-6.48.08-2.61,3.18-5.19,6.21-5.17A5.89,5.89,0,0,1,521.72,427.51Z" transform="translate(-109.85 -319.61)"/><path class="cls-5" d="M516.93,466.74c-2.81,0-5.74-2.83-5.75-5.55s3.27-6.16,5.67-6.1c2.74.07,5.57,3.1,5.7,6.11C522.64,463.42,519.27,466.75,516.93,466.74Z" transform="translate(-109.85 -319.61)"/><path class="cls-6" d="M504.26,481.72a6.22,6.22,0,0,1,5.8,5.7c.1,2.48-3.14,5.49-6,5.59-2,.07-5.42-3.64-5.47-5.88S501.76,481.71,504.26,481.72Z" transform="translate(-109.85 -319.61)"/><path class="cls-7" d="M482.33,504.85c0,3.64-1.73,5.2-5.7,5.17a5.11,5.11,0,0,1-4.85-5.33,6,6,0,0,1,5.9-5.73C480.11,499,482.33,501.8,482.33,504.85Z" transform="translate(-109.85 -319.61)"/><path class="cls-8" d="M458.47,449.09c0,3.53-.06,6.53-2,9.25-.67,1-.62,2.45-.82,3.71-.09.56-.31.79-.86.8s-.82-.24-.81-.81a9.87,9.87,0,0,1,.05-3c2.66-7.37.47-14.12-2.2-21-2.47-6.32-5.95-11.84-11.54-15.7-3.9-2.69-7.82-5.3-12.93-5.88-2.8-.32-5.65-1.35-8.16,0s-5.36,2.79-7.42,5.09c-.65.72-1.42,2-2.44,1.24a2.94,2.94,0,0,1-.8-3.27,35.12,35.12,0,0,0,1.23-6.07c1.18-7.39-.41-14.26-3.65-20.82A33.8,33.8,0,0,0,394,379a45.68,45.68,0,0,0-11.88-5c-6.64-1.87-13.44-3.53-19.39-7.22-5.49-3.4-10-7.76-12.42-14-2.23-5.77,2.71-14.29,8.88-15.33,3.43-.58,6.26,2,7.92,5.09,1.51,2.82-.38,4.49-.8,6.63-.18.91-1.13,2-2.23,1.5-1.35-.59.19-1.53.07-2.31-.2-1.36,2.05-2.09.94-3.6s-1.81-3.6-4.24-3.42-6,3.27-6.13,5.95c-.29,4.64,2.06,7.94,5.41,10.64,6.07,4.91,13.47,6.54,20.82,8.4,9.16,2.31,17.93,5.63,24.54,12.77a40.82,40.82,0,0,1,10.44,19.59,52.19,52.19,0,0,1,1.54,9.37c.05,2.05,1.87,1.84,2.87,1.39,4.17-1.9,8.11-.19,11.72,1.14a39.05,39.05,0,0,1,19.73,16.64,44.33,44.33,0,0,1,5.8,13.94A29.61,29.61,0,0,1,458.47,449.09Z" transform="translate(-109.85 -319.61)"/><path class="cls-9" d="M392.75,471c-1-3.25,1.18-4.66,2.48-6.37,3.32-4.4,7.19-8.36,12.3-10.57a153.91,153.91,0,0,1,16.19-5.89c4.15-1.27,8.54-2.48,12.13-5.28.66-.51,1.7-1.45,2.3-.94s.07,1.8-.25,2.68c-.88,2.41-1.93,4.77-2.7,7.21-1.42,4.49-2.86,8.94-4.71,13.28-2.57,6.05-7,10.25-12.31,13.74a29.88,29.88,0,0,1-8.32,4.15c-.71.2-1.34.48-1.53-.22a1.47,1.47,0,0,1,.6-1.87c7.15-5,11-12.66,15.45-19.81.47-.76.79-1.91.11-2.58s-1.39.27-2.08.65a63.07,63.07,0,0,1-15,5.29,41.88,41.88,0,0,0-11.42,4.7C395,469.8,393.76,469.84,392.75,471Z" transform="translate(-109.85 -319.61)"/><path class="cls-10" d="M389.55,389.45c1.91,5.29,3.54,9.79,4.75,14.44,1.33,5.15,2.87,10.18,2.89,15.66,0,3.4-.34,6.76-.33,10.15a2.6,2.6,0,0,1-.33,1.55c-.42.51.26,1.65-1,1.65s-1.41-1.3-1.34-1.68c.45-2.41-1.28-4.32-1.32-6.62,0-.59,0-2.06-1.05-2.14s-.84,1.17-1.2,1.85c-2.13,4.13-2.71,8.69-3.74,13.12-.14.62.37,1.49-.9,1.6s-1.13-.64-1.47-1.41c-3.93-9.07-2.28-18,.41-27,1.67-5.56,3.43-11.12,3.66-17A25.25,25.25,0,0,1,389.55,389.45Z" transform="translate(-109.85 -319.61)"/><path class="cls-11" d="M393,483.71a6,6,0,0,1-5.78,5.78c-2.55,0-5.36-3.11-5.31-5.9,0-2,3.07-5.87,4.63-5.67C390.38,478.4,393.19,480.68,393,483.71Z" transform="translate(-109.85 -319.61)"/><path class="cls-12" d="M146.1,480.86c-.1.1-.34.39-.7.85s-.65.86-.85,1.17a.26.26,0,0,1-.16.23.94.94,0,0,0-.31.39l-.47.47-3.42,4.51-4.36,5.6c-.21.31-.59.91-1.16,1.79s-1.2,1.79-1.87,2.72-1.32,1.82-2,2.65-1,1.4-1.24,1.71c-.1.1-.34.31-.7.62a2.82,2.82,0,0,0-.7.78v.47l-.62,1.24c-.31.62-.65,1.27-1,1.94s-.73,1.33-1.09,1.95a9.22,9.22,0,0,1-.7,1.09,4.39,4.39,0,0,1-.47,1.32,4.58,4.58,0,0,0-.47,1.32c-.1.11-.28.31-.54.63s-.54.67-.86,1.08l-.85,1.17a5.81,5.81,0,0,1-.55.7,1.21,1.21,0,0,1-.38.47c-.16.1-.24.2-.24.31a1.84,1.84,0,0,0-.85.31,2.13,2.13,0,0,1-.7.31h-.63c-.21-.1-.59-.31-1.16-.62a2.48,2.48,0,0,1-1-.78c-.11-.1-.16-.39-.16-.85v-.86c.1-.52.26-1.45.47-2.8s.44-2.75.7-4.2.49-2.83.7-4.12.36-2.21.46-2.73c0-.1,0-.36.08-.77s.1-.88.16-1.4.07-1,.07-1.48v-.86l.94-1.09-.31-.31a.41.41,0,0,1-.16-.31v-.31l.16-.47a2.7,2.7,0,0,1,.46-.85,2.84,2.84,0,0,0,.47-.86,5.23,5.23,0,0,0,.31-1.32c.1-.67.16-1.06.16-1.17l1.55-3.89V486a.64.64,0,0,1,.08-.39.32.32,0,0,0,.08-.23,2.89,2.89,0,0,0,.23-.78,5.36,5.36,0,0,0,.08-.62.61.61,0,0,1-.16-.47,1.38,1.38,0,0,1-.15-.62v-1.25a2.61,2.61,0,0,1,.31-.77,1.46,1.46,0,0,0,.16-.62,3.29,3.29,0,0,0,.38-.55,1.35,1.35,0,0,1,.55-.54c0-.11.1-.24.31-.39s.31-.29.31-.39l.31-.16v-.31l-.15-.15a.45.45,0,0,1-.16-.32.47.47,0,0,0-.15-.31l1.55-2.49h-.78a1.49,1.49,0,0,1,.47-1.08.49.49,0,0,1,.31-.47,1.91,1.91,0,0,0,.47-.31,9.86,9.86,0,0,0,.39-1.87A8.55,8.55,0,0,1,127,469a1.9,1.9,0,0,1,.38-.7c.26-.36.44-.54.55-.54a10.43,10.43,0,0,1,.62-1,2.84,2.84,0,0,0,.47-.86v-.15a.45.45,0,0,1,.15-.31v-.16a.63.63,0,0,0-.23-.39.58.58,0,0,1-.23-.39v-.15l.15-.47a3,3,0,0,1,.47-.86,2.84,2.84,0,0,0,.47-.85,8.58,8.58,0,0,1,.15-.94,4.91,4.91,0,0,1,.31-1.08,4.15,4.15,0,0,1,.24-.86c.15-.47.31-1,.46-1.56a11.68,11.68,0,0,1,.55-1.55,3.11,3.11,0,0,0,.31-1c0-.1,0-.62.08-1.56a17,17,0,0,1,.23-2.18c0-.2,0-.64-.08-1.32s-.08-1.06-.08-1.17a.34.34,0,0,1,.08-.23.32.32,0,0,0,.08-.23v-.16a1.32,1.32,0,0,1-.23-.7,1.48,1.48,0,0,0-.24-.7c0-.1,0-.62-.15-1.55a4.77,4.77,0,0,0-.31-1.56,5.17,5.17,0,0,1-1.17-1.32c-.57-.78-1-1.38-1.32-1.79a15.64,15.64,0,0,0-1.71-1.87,15.54,15.54,0,0,1-1.72-1.86,2.58,2.58,0,0,0-.15-.63,1.93,1.93,0,0,0-.31-.62v-.15c0-.11,0-.16.08-.16s.07-.05.07-.16v-.15l1.09-2,.31-.16a.43.43,0,0,0,.16-.31,5.67,5.67,0,0,1,1.55-.62,5.77,5.77,0,0,1,2.57-.16c1.3.11,2.1.16,2.41.16a4.26,4.26,0,0,1,1.4-.7,4.15,4.15,0,0,0,1.4-.7l1.09-1.71c0-.21,0-.88.08-2a18.88,18.88,0,0,1,.23-2.49c0-.41,0-1.26-.07-2.56a17.11,17.11,0,0,0-.24-2.57,11.27,11.27,0,0,0-.23-1.48,9.28,9.28,0,0,1-.23-1.63,15.42,15.42,0,0,1-.63-1.87,10.63,10.63,0,0,1-.46-1.86,3,3,0,0,1-.24-1c0-.46,0-.75.08-.85v-.62l.16-.32v-.31c.1-.2.23-.44.39-.7a1.33,1.33,0,0,1,.54-.54,1,1,0,0,1,.62-.47,2.63,2.63,0,0,1,.78-.15h.62a4,4,0,0,0,.78.93,9.55,9.55,0,0,1,1.17,1.48,16.74,16.74,0,0,0,1.09,1.55,11.16,11.16,0,0,0,.85,1l3,5.75a1.75,1.75,0,0,1,.23.86c0,.46.08.75.08.85a1.39,1.39,0,0,1,.23.7,1.22,1.22,0,0,0,.24.7v1.87a5.84,5.84,0,0,1,.77,1.87,3.8,3.8,0,0,1,.31,1.86c.11.11.13.52.08,1.25s0,1.14.08,1.24l.31,1.25a3.28,3.28,0,0,1,.23,1,1.91,1.91,0,0,1-.07,1,3.67,3.67,0,0,1,.15,1.32v1.17l-.15,1.09c0,.31.05,1.09.15,2.33a7,7,0,0,1,0,2.18l-.62,6.22a13.5,13.5,0,0,1-.31,1.48l-.47,1.95a1.73,1.73,0,0,0-.15.77,3.09,3.09,0,0,1-.16.94c-.1.41-.21.77-.31,1.09a4.09,4.09,0,0,1-.54,1.32,3.81,3.81,0,0,0-.55,1.32l-1.55,3.89a4.32,4.32,0,0,1-.47,1c-.31.57-.62,1.17-.93,1.79s-.63,1.22-.94,1.79a6.28,6.28,0,0,1-.62,1l-1.56,4.36a7,7,0,0,0,.16.93q.15.78,0,.93,0,.63-.78.63l-.47-.63-.77.63-1.25,6.22a2.73,2.73,0,0,0-.78.31c-.41.21-.62.36-.62.47a3.45,3.45,0,0,0-.46.85,3.51,3.51,0,0,0-.32.86c-.1.1-.13.31-.07.62a2.89,2.89,0,0,0,.23.78,3.73,3.73,0,0,1,.47.85,3.94,3.94,0,0,1,.31.86,1.26,1.26,0,0,1,.46.78c.11-.11.37-.31.78-.63a2.53,2.53,0,0,0,.78-.77l.93-1.09.31-.31.32-.32a9.3,9.3,0,0,0,1.55-1.86c.83-1.14,1.5-2,2-2.65a7.26,7.26,0,0,0,.7-1c.37-.57.78-1.16,1.25-1.79s.91-1.19,1.32-1.71a8.9,8.9,0,0,0,.78-1.09,5.4,5.4,0,0,0,1.09-.93q.78-.78.78-.93a6.51,6.51,0,0,0,.85-1.87,10.06,10.06,0,0,0,.55-1.87,1.37,1.37,0,0,1,.38-.78c.26-.31.39-.51.39-.62a11.06,11.06,0,0,0,.86-2.33,18.67,18.67,0,0,1,.85-2.49,12.89,12.89,0,0,0,.39-1.79c.16-.88.37-1.81.63-2.8s.46-1.92.62-2.8a7.17,7.17,0,0,1,.39-1.63,15.62,15.62,0,0,1,.54-1.79,6.35,6.35,0,0,1,.86-1.95,6.94,6.94,0,0,1,.31-1.4c.21-.72.41-1.53.62-2.41a23.35,23.35,0,0,1,.7-2.41,15,15,0,0,1,.55-1.4,3.59,3.59,0,0,1,.38-.93c.26-.52.52-1.12.78-1.79l.78-2q.39-1,.54-1.47l3.43-7.63a8.4,8.4,0,0,1,.62-1.47,6.26,6.26,0,0,0,.62-1.64,2.07,2.07,0,0,0,.7-.85,4.38,4.38,0,0,1,.55-.86c.1-.31.36-.91.77-1.79s.86-1.79,1.33-2.72.88-1.81,1.24-2.65.65-1.45.86-1.86a5,5,0,0,0,.54-1.09,4.22,4.22,0,0,1,.7-1.25,11.32,11.32,0,0,1,.47-1.16,14.06,14.06,0,0,1,.7-1.4c.26-.47.54-1.07.85-1.79a8.87,8.87,0,0,0,1-1.56,4.77,4.77,0,0,1,1.16-1.55,6.41,6.41,0,0,1,.78-1.4c.41-.63.67-1,.78-1.25a.13.13,0,0,1,.15-.15.45.45,0,0,0,.31-.16.49.49,0,0,1,.32-.16.47.47,0,0,0,.31-.15.32.32,0,0,0,.23-.08.32.32,0,0,1,.23-.08.14.14,0,0,0,.16.16.45.45,0,0,0,.31.15,1.34,1.34,0,0,1,.47.16.86.86,0,0,0,.62.31l.16.31a.43.43,0,0,0,.15.31,6.13,6.13,0,0,1,.62,1.4,6.47,6.47,0,0,1,.31,1.09l-1.24,2.65c-.11.21-.34.8-.7,1.79a6.41,6.41,0,0,1-.86,1.79,1.72,1.72,0,0,1-.23.77,1.44,1.44,0,0,1-.54.63,12.15,12.15,0,0,1-.55,1.55c-.36.94-.65,1.66-.85,2.18l-3,8.71c0,.42-.05.68-.16.78l-5.13,12.6a9.89,9.89,0,0,0-1.09,1.79,9.51,9.51,0,0,1-1.09,1.79,4.11,4.11,0,0,1-.08.78,1.19,1.19,0,0,1-.23.62,3.12,3.12,0,0,1-.39.86,6.6,6.6,0,0,0-.54,1.16,4.26,4.26,0,0,0-1,1.48,8.8,8.8,0,0,1-1,1.63,10.06,10.06,0,0,1-.55,1.87,6.51,6.51,0,0,1-.85,1.87.26.26,0,0,1-.16.23.77.77,0,0,0-.31.39,2.24,2.24,0,0,1-.31.47,11.6,11.6,0,0,1-.24,1.24q-.22,1.09-.39,1.71c-.1.42-.23,1-.38,1.64a7.42,7.42,0,0,0-.24,1.32,3.46,3.46,0,0,0,.08.54,1.09,1.09,0,0,0,.23.55l-.62,3.73c-.1.52-.29,1.27-.54,2.26a16.21,16.21,0,0,0-.39,1.63,9.32,9.32,0,0,1-.62,1.48,6.19,6.19,0,0,0-.63,1.63.66.66,0,0,0-.15.47,2.07,2.07,0,0,0-.16.93,1.13,1.13,0,0,0-.23.55,3.63,3.63,0,0,0-.08.54l.31,1.25a2.58,2.58,0,0,1,.16,1.24v1.24a5.45,5.45,0,0,1,.54.94c.26.52.34.88.24,1.09s-.06.44-.16,1-.23,1.16-.39,1.79-.29,1.22-.39,1.79a10.2,10.2,0,0,0-.15,1,7.48,7.48,0,0,0-.08,2.25,26,26,0,0,0,.23,2.88c.1,0,.16.16.16.47a.62.62,0,0,0,.31.62c0,.1,0,.42.08.93a2.23,2.23,0,0,1-.08,1.09,1.45,1.45,0,0,0,.15.63,1.82,1.82,0,0,0,.32.46.43.43,0,0,0,.15.31l.31.31,2.18-4.35a6,6,0,0,1,.54-1.56c.37-.83.6-1.34.71-1.55s.38-.75.85-1.64,1-1.81,1.56-2.8,1.09-1.89,1.55-2.72a9,9,0,0,1,1-1.56l2-3.88c.31-.52.82-1.43,1.55-2.73a22.28,22.28,0,0,0,1.25-2.41q.15-.15.93-1.17c.52-.67,1-1.4,1.56-2.17s1-1.51,1.4-2.18.67-1.11.77-1.32.42-.7.94-1.48,1-1.64,1.55-2.57,1-1.79,1.48-2.57.75-1.26.86-1.47a4.86,4.86,0,0,0,.46-.7,1.69,1.69,0,0,1,.62-.7l2.65-4.83,1.48-2.17q1.17-1.71,2.64-3.74t2.8-4c.88-1.29,1.58-2.25,2.1-2.87a10.43,10.43,0,0,0,.78-1l1.32-1.78c.47-.63.91-1.2,1.33-1.72a7.08,7.08,0,0,0,.77-1.08c.21-.21.63-.7,1.25-1.48s1.27-1.64,1.94-2.57,1.3-1.81,1.87-2.64a18,18,0,0,0,1-1.56c.21-.21.55-.6,1-1.17s1-1.19,1.48-1.86,1-1.33,1.56-2,.88-1,1.08-1.24.55-.6,1-1.17.95-1.17,1.47-1.79,1-1.17,1.4-1.63.73-.8.94-1l3.11-3.11c.21-.21.72-.65,1.55-1.33a12.92,12.92,0,0,1,1.56-1.16,7.58,7.58,0,0,1,1.17-1.33l1.32-1.32.7-.7,1.17-1.17,1.16-1.16.7-.7a3.31,3.31,0,0,1,.7-.94,5.29,5.29,0,0,1,1-.93l3.43-2.49,2.49-2,3.42-2.49,7.16-4.36a10.49,10.49,0,0,1,1.08-.77c.63-.42,1.27-.88,2-1.4s1.29-1,1.87-1.4a3.74,3.74,0,0,0,1-.94q.93-.61,2.49-1.71a19.09,19.09,0,0,0,1.86-1.4c.31-.21.81-.52,1.48-.93s1.4-.86,2.18-1.32,1.5-.89,2.18-1.25,1.11-.6,1.32-.7a5.48,5.48,0,0,1,.78-.54,16,16,0,0,1,1.4-.78c.52-.26,1-.49,1.55-.7s.88-.36,1.09-.47a6.71,6.71,0,0,0,1.25-.62,13.64,13.64,0,0,1,1.71-.86c.62-.25,1.16-.49,1.63-.7a3.6,3.6,0,0,0,.86-.46l3.89-1.25a21.39,21.39,0,0,0,3.11-.54c1.66-.36,2.85-.6,3.58-.7.51-.1,1.32-.24,2.41-.39s1.73-.24,1.94-.24l1.25-.07c.72-.05,1.19-.08,1.4-.08a3.85,3.85,0,0,1,.7.08,3.68,3.68,0,0,0,.7.07h.93a13.21,13.21,0,0,1,2.26.47,14.33,14.33,0,0,1,2.41.78c.31.1.8.31,1.48.62a5.07,5.07,0,0,1,1.32.78l1.71,1.09c.31.41.88,1.19,1.71,2.33a12.19,12.19,0,0,1,1.4,2.18c.1,0,.31.42.62,1.25s.52,1.45.63,1.86a3,3,0,0,1,.54,1.25,6,6,0,0,1,.23,1.24,2.56,2.56,0,0,0,.16,1.09,1.27,1.27,0,0,0,.16.62,17.77,17.77,0,0,1-.32,2c-.21,1.09-.36,1.89-.46,2.41a20,20,0,0,0-.63,2.64,6.75,6.75,0,0,1-.46,1.87c-.11.42-.37,1.17-.78,2.26s-.73,1.84-.93,2.25c-.11.21-.29.6-.55,1.17l-.85,1.87c-.32.67-.63,1.29-.94,1.86a8.68,8.68,0,0,0-.62,1.32,9.17,9.17,0,0,0-.93,1.25,4.56,4.56,0,0,1-1.09,1.24,3.14,3.14,0,0,1-.62.94,7.07,7.07,0,0,0-.78,1.09,3.93,3.93,0,0,0-1,1.16,12.66,12.66,0,0,1-1,1.33,12.34,12.34,0,0,1-1.56,2q-1.24,1.4-1.56,1.71l-5.28,4.36a8.08,8.08,0,0,1-1.41.93,8.29,8.29,0,0,0-1.4.93,2.49,2.49,0,0,1-.93.39l-1.24.39c-.31.1-.78.23-1.4.39a9.57,9.57,0,0,1-1.09.23h-3.74a14,14,0,0,0-1.86-.7c-.84-.26-1.3-.49-1.4-.7a6.49,6.49,0,0,1-1.33-1.4,10.07,10.07,0,0,1-1.16-1.71c-.11,0-.26-.33-.47-1a5.75,5.75,0,0,1-.31-1.63,2.24,2.24,0,0,1-.16-.94v-.78a5,5,0,0,1,.32-1.4v-.62a.64.64,0,0,1,.15-.46l1.25-2.49a1.48,1.48,0,0,1,.31-.78,1.73,1.73,0,0,0,.31-.62,17.6,17.6,0,0,0,1.71-1.48,11.21,11.21,0,0,0,1.55-1.64l3.74-3.11a2.13,2.13,0,0,0,.7-.31,2,2,0,0,1,.85-.31H281a15.52,15.52,0,0,1,1.17,1.48c.57.78,1,1.32,1.17,1.63l-.63.62h-6.37a1.6,1.6,0,0,0-.63.32,4.22,4.22,0,0,0-.62.46c-.21,0-.52.24-.93.7a5.81,5.81,0,0,0-.78,1l-1.09,2L271,404.94v.46a.62.62,0,0,0-.16.47V406a3.83,3.83,0,0,0-.08,1.4c0,.62,0,1-.08,1.09a4.55,4.55,0,0,1,.55,1.4,7.08,7.08,0,0,0,.39,1.24c0,.11.13.21.39.31a1.6,1.6,0,0,0,.54.16l1.64.85a5.17,5.17,0,0,0,1.16.55h1.4a18.7,18.7,0,0,1,2-.62,5.88,5.88,0,0,0,1.94-.78c.62-.21,1.64-.6,3-1.17a10.82,10.82,0,0,0,2.41-1.17,7.56,7.56,0,0,0,1.86-1.4c.94-.83,1.61-1.45,2-1.86l.77-.78a4.25,4.25,0,0,0,.78-.93l1.32-1.95a10.44,10.44,0,0,0,1.17-1.94,1.75,1.75,0,0,0,.62-.78c.21-.42.37-.73.47-.94a26.32,26.32,0,0,0,1.32-2.72,21.05,21.05,0,0,1,1.17-2.41l1.24-3.73A5.63,5.63,0,0,1,299,389a5.77,5.77,0,0,0,.16-1c.1-.31.2-.7.31-1.17a6.2,6.2,0,0,0,.15-.85c0-.1.05-.57.16-1.4a4.66,4.66,0,0,0,0-1.71,1.47,1.47,0,0,0,0-.94,3.88,3.88,0,0,1-.16-.93c-.21-.62-.46-1.58-.78-2.88a10.07,10.07,0,0,0-.62-2.1,35.61,35.61,0,0,0-2.1-2.88,18.73,18.73,0,0,0-2.41-2.72c0-.1-.34-.31-1-.62s-1.22-.57-1.63-.78c-.21-.1-.52-.23-.94-.39a3.12,3.12,0,0,0-.93-.23c-.42-.1-1-.21-1.64-.31s-1.06-.16-1.16-.16-.73-.05-1.56-.15a15.86,15.86,0,0,0-2-.16,17.25,17.25,0,0,0-1.79.16c-.88.1-1.43.15-1.63.15s-.86,0-1.95.16-1.89.21-2.41.31a6.83,6.83,0,0,0-1.24.23c-.63.16-1.09.29-1.4.39a2.81,2.81,0,0,0-1,.31,3.42,3.42,0,0,1-.86.31,4.91,4.91,0,0,1-1.17.55c-.46.15-1,.33-1.47.54l-2,.78-1.4.7c-.72.36-1.48.75-2.25,1.17l-2.18,1.16-1.32.7-2.8,1.4-5.61,3.74a7.63,7.63,0,0,0-1.08.77c-.52.42-1.09.91-1.71,1.48s-1.25,1.12-1.87,1.64-1.09.88-1.4,1.09L238,391.09,235.87,393l-.94.93q-.62.63-1.32,1.32c-.47.47-.93.91-1.4,1.33s-.75.67-.86.77l-1.24,1.25a10.28,10.28,0,0,1-1.4,1.24L223.27,406l-.39.39a2.15,2.15,0,0,1-.55.38c-.21.21-.54.6-1,1.17s-1,1.14-1.48,1.71l-1.48,1.64a6.41,6.41,0,0,0-.85,1.09l-5.76,7.46a2.79,2.79,0,0,0-.77.78c-.32.42-.65.83-1,1.25l-1,1.16c-.31.37-.46.6-.46.7l-2.8,3.74a3.65,3.65,0,0,0-.94.93,11,11,0,0,1-.78.93l-.54,1.09q-.39.78-.54.78c0,.1-.08.21-.24.31a1.33,1.33,0,0,0-.39.47l-3.57,5.6c-.21.31-.68,1-1.41,1.94a19.81,19.81,0,0,1-1.4,1.79,18.73,18.73,0,0,0-1.24,1.64,6,6,0,0,1-1.24,1.47l-1.87,2.49a15.45,15.45,0,0,1-1.48,2.49,7.63,7.63,0,0,0-1.17,2,9,9,0,0,0-1,1.56c-.46.83-1,1.76-1.48,2.8s-1,2-1.55,3a9.6,9.6,0,0,0-.93,2c-.21.1-.45.52-.7,1.24a5.1,5.1,0,0,1-.55,1.25l-.78.62a6.46,6.46,0,0,0-.85,1.94c-.37,1.09-.6,1.74-.7,2l-.31.62-.31.62c-.21.11-.45.52-.71,1.25s-.49,1.14-.7,1.24a7,7,0,0,1-.85,1.87,10.93,10.93,0,0,1-1.17,1.87,3.73,3.73,0,0,1-.08.62,2.89,2.89,0,0,1-.23.78l-2.64,3.58a10.8,10.8,0,0,1-.86,1.63c-.47.78-.75,1.27-.85,1.48l-.63,1.24c-.31.62-.67,1.27-1.09,2a20.93,20.93,0,0,0-1.09,2,6.11,6.11,0,0,1-.62,1.16,3.66,3.66,0,0,1-.39.94,3.82,3.82,0,0,0-.39.93,22,22,0,0,0-1.4,2.57l-.93,1.94c-.1.21-.34.83-.7,1.87s-.65,1.82-.85,2.33v.78a.62.62,0,0,1-.32.62,2.62,2.62,0,0,1-.46,1.09c-.31.52-.65,1.12-1,1.79l-1,1.87a3.88,3.88,0,0,0-.47,1c-.42,1-.78,1.92-1.09,2.65s-.6,1.47-.86,2.25a13.7,13.7,0,0,1-.7,1.79l-1.4,3.89c-.21.21-.49.47-.85.78a1.56,1.56,0,0,1-.86.46h-2.18c-.21,0-.33-.07-.38-.23a1.08,1.08,0,0,0-.24-.39c0-.21-.08-.83-.23-1.87s-.24-1.66-.24-1.86a11.11,11.11,0,0,0-.23-1.56,14.59,14.59,0,0,0-.39-1.71c.1-.1,0-.47-.23-1.09a4.09,4.09,0,0,1-.39-1.4,3.71,3.71,0,0,0-.23-.78c-.16-.41-.34-.88-.55-1.4s-.39-1-.54-1.4a3.23,3.23,0,0,1-.24-.77,1.27,1.27,0,0,1-.23-.63c0-.31,0-.51.08-.62a3.36,3.36,0,0,1-.55-1.55,11.76,11.76,0,0,1-.23-1.72,6.51,6.51,0,0,1-.23-1.79c-.06-1-.08-1.58-.08-1.78a18.37,18.37,0,0,1-.31-2.34c-.11-1.14-.16-1.86-.16-2.18v-9.72a5.53,5.53,0,0,1,.16-1.63ZM131.79,484h.78l-.63-.62Zm.78,2.64.77-.62h-.62Zm2.64-9.49c-.21-.1-.34,0-.39.31s0,.42.24.32a.37.37,0,0,0,.38-.32C135.5,477.23,135.42,477.12,135.21,477.12Zm.78,4.51a.38.38,0,0,1-.62,0,.49.49,0,0,1,.46-.31C136,481.32,136.09,481.43,136,481.63Zm21.31-.77c.42,0,.57.23.47.7a.77.77,0,0,1-.78.7c-.31,0-.41-.24-.31-.7S157,480.86,157.3,480.86Zm1.25,0c.31,0,.41.23.31.7s-.31.7-.62.7-.26-.24-.16-.7S158.34,480.86,158.55,480.86Zm61.91-75.46a27.06,27.06,0,0,0-2.48,1.87c-1.15.93-1.92,1.61-2.34,2l-9.8,11.36a15.52,15.52,0,0,0-1.17,1.48c-.57.78-1.19,1.63-1.86,2.57l-1.87,2.56a7.33,7.33,0,0,0-1,1.64,4.81,4.81,0,0,0-1,.85l-.86.86a3.4,3.4,0,0,1-.7,1.32,14,14,0,0,1-.85,1.17,23,23,0,0,0-1.87,2.49q-1.39,2-3,4.2t-3,4.12a15,15,0,0,0-1.55,2.41,3.39,3.39,0,0,0-.63,1,3.09,3.09,0,0,1-.62,1v.16a.28.28,0,0,1-.08.23.33.33,0,0,0-.07.23l-.78.63a3.6,3.6,0,0,1-.47.93,3.4,3.4,0,0,0-.46.93l-.78,1.25a8.74,8.74,0,0,0-1,1.48c-.47.77-.81,1.32-1,1.63s-.28.54-.54,1l-.85,1.56c-.32.57-.63,1.09-.94,1.55a7.42,7.42,0,0,1-.62.86,3.82,3.82,0,0,1-.39.93,4.36,4.36,0,0,1-.7,1.09,2.65,2.65,0,0,1-.54.86,16.74,16.74,0,0,0-1.09,1.55c-.37.57-.76,1.12-1.17,1.64s-.68.83-.78.93a3.94,3.94,0,0,1-.7,1.4c-.47.73-.8,1.3-1,1.71a1.79,1.79,0,0,1-.47.93,1.89,1.89,0,0,0-.46.94,1.74,1.74,0,0,0-.63.62,4.22,4.22,0,0,1-.46.62c-.11.21-.29.65-.55,1.32a4.14,4.14,0,0,1-.7,1.33,3,3,0,0,1-.39.85,2.94,2.94,0,0,0-.38.86c-.32.62-.73,1.4-1.25,2.33s-1,1.9-1.48,2.88-.85,1.84-1.16,2.57a7.1,7.1,0,0,0-.47,1.24,1.34,1.34,0,0,0-.16.47c0,.21,0,.34-.07.39a.28.28,0,0,0-.08.23.32.32,0,0,1-.08.23.66.66,0,0,0-.08.39,1.45,1.45,0,0,0-.15.62l2-3.11a2.83,2.83,0,0,1,.23-.7,9.06,9.06,0,0,1,.63-1.16l.7-1.17a3.73,3.73,0,0,1,.46-.7,13,13,0,0,1,.86-1.32,3.72,3.72,0,0,0,.7-1.32,21,21,0,0,0,1.48-2.11q1.15-1.78,1.32-2.1a11.88,11.88,0,0,1,.93-1.32c.52-.67,1-1.4,1.56-2.18s1-1.5,1.4-2.17.67-1.12.78-1.33.33-.72.7-1.55a6,6,0,0,0,.54-1.56l.54-1.09a2.19,2.19,0,0,1,.7-.93,6.31,6.31,0,0,1,.47-1.17,4.39,4.39,0,0,0,.47-1.32,2.71,2.71,0,0,1,.47-.86,2.7,2.7,0,0,0,.46-.85c.41-.62,1-1.58,1.71-2.88s1.14-2.05,1.25-2.25l.54-.63a1.35,1.35,0,0,0,.39-.77l6.38-9.34q.93-1.24,2.57-3.58l3.34-4.74q1.71-2.42,3-4.36A22.68,22.68,0,0,1,201,428.9a5.87,5.87,0,0,1,.93-1.33c.62-.77,1.35-1.65,2.18-2.64s1.66-2,2.49-3.11,1.5-1.95,2-2.57l6.69-8.09Zm1.56-2.48c-.31,0-.52.23-.62.7s0,.7.31.7.52-.24.62-.7S222.33,402.92,222,402.92Z" transform="translate(-109.85 -319.61)"/><path class="cls-12" d="M289.38,496.73a3.11,3.11,0,0,1,.16-.86,4,4,0,0,0,.16-.7c.2-.41.59-1.27,1.16-2.57s1-2.2,1.17-2.72l3.26-5.91.86-1.25c.36-.51.73-1.06,1.09-1.63s.7-1.09,1-1.55a3,3,0,0,0,.47-.86c.2-.21.67-.72,1.4-1.56a7.88,7.88,0,0,1,1.4-1.4,1.89,1.89,0,0,1,1-.62,12.18,12.18,0,0,0,1.17-.47h3.42a7.06,7.06,0,0,1,.85.16c.47.1,1,.21,1.56.31l1.56.31a5.67,5.67,0,0,1,1,.31,2.64,2.64,0,0,1,1.09.31l.93.47a12.24,12.24,0,0,1,.85,1l1.09,1.4c.37.47.68.88.94,1.25a1.84,1.84,0,0,1,.39.7c.1,0,.07.34-.08,1a8.15,8.15,0,0,1-.39,1.32,16,16,0,0,0-.31,1.63,3.12,3.12,0,0,1-.31,1.17,4.06,4.06,0,0,1-1.25,1,11.75,11.75,0,0,0-1.4,1h-3.26l-.32-.31a3.33,3.33,0,0,1-.46-.78,5.09,5.09,0,0,0-.7-1.55,7.23,7.23,0,0,1-.7-1.4,3,3,0,0,0-.86-1.32l-.85-.86h-4.36c-.1,0-.31.16-.62.47l-.62.62a10,10,0,0,1-1.56,2.26,16.37,16.37,0,0,0-1.4,1.78c-.1.21-.26.6-.47,1.17s-.44,1.2-.7,1.87-.49,1.3-.7,1.87-.36,1-.46,1.32q0,.15-.24,1.32c-.15.78-.28,1.38-.39,1.79a13,13,0,0,0-.54,1.87,8.24,8.24,0,0,0-.23,1.4,8.12,8.12,0,0,1,.31.77,5.54,5.54,0,0,1,.31,1.25,5.37,5.37,0,0,1,.78,1.55,6.28,6.28,0,0,0,.62,1.4l6.07,7.32a12.12,12.12,0,0,0,1.4,1.09,5.17,5.17,0,0,0,1.24.77,12.49,12.49,0,0,1,1.32.16,12.42,12.42,0,0,0,1.79.15h.86a4.93,4.93,0,0,0,1.16-.15,6.68,6.68,0,0,0,1.4-.16,8.75,8.75,0,0,0,2-.77c1.14-.52,2-.88,2.49-1.09s1.19-.68,2-1.09,1.63-.86,2.41-1.32,1.45-.86,2-1.17a6.28,6.28,0,0,0,1-.62c.11-.11.42-.52.94-1.25L326.1,504c.62-.88,1.24-1.74,1.86-2.57s1.09-1.45,1.41-1.86a8,8,0,0,1,.77-1.95c.52-1.09.88-1.89,1.09-2.41a3.62,3.62,0,0,0,.47-.78,13,13,0,0,0,.62-1.48c.21-.56.44-1.14.7-1.71s.44-1,.55-1.32c.31-.83.7-1.89,1.16-3.19s1-2.51,1.48-3.65q.78-2,1.87-4.36c0-.1,0-.65.08-1.63s.1-2.13.15-3.43.1-2.64.16-4,.13-2.52.23-3.35c-.21-.2-.31-.77-.31-1.71a11.21,11.21,0,0,0-.16-2.18,15.27,15.27,0,0,0-.15-1.79,13.71,13.71,0,0,1-.16-1.47,6.59,6.59,0,0,0-.62-2.26,7.32,7.32,0,0,1-.62-1.79,10.57,10.57,0,0,0-1.32-1.79c-.68-.78-1.17-1.16-1.48-1.16.1-.21-.21-.34-.94-.39s-1.34-.08-1.86-.08-1.15,0-1.87.08a2.32,2.32,0,0,0-1.4.39,4.92,4.92,0,0,0-1,.38c-.57.27-1.25.55-2,.86l-2.34.93c-.78.32-1.37.58-1.79.78l-5.91,3a3.6,3.6,0,0,1-1.4.78l-.93.31H309a2.33,2.33,0,0,1-1-.47c-.46-.31-.7-.52-.7-.62v-.62a2.72,2.72,0,0,1,.08-.63,2.57,2.57,0,0,0,.08-.62,5,5,0,0,1,.31-1.24l.31-.94,1.4-1.86c.52-.42,1.25-1,2.18-1.79s1.56-1.27,1.87-1.48,1.11-.47,2.41-1.09,2.67-1.27,4.12-1.94l4.12-1.95c1.3-.62,2.1-1,2.41-1.24l.86-.86c.47-.47,1-1,1.56-1.71s1.14-1.32,1.71-1.94,1-1.15,1.32-1.56c.21-.21.72-.83,1.56-1.87a11.14,11.14,0,0,0,1.55-2.33,15.22,15.22,0,0,0,1.64-2.49c.77-1.35,1.26-2.23,1.47-2.65s.47-.75.78-1.32.67-1.19,1.09-1.86.78-1.33,1.09-1.95a5.15,5.15,0,0,1,.78-1.24,11.84,11.84,0,0,1,.77-1.95c.42-.88.83-1.73,1.25-2.57s.78-1.58,1.09-2.25a5.42,5.42,0,0,0,.46-1.17,3.11,3.11,0,0,0,.39-1.16c.16-.68.29-1.17.39-1.48l.47-2.65-19.45,15.56-8.71,12.29c-.1.1-.39.44-.85,1l-1.64,2c-.62.78-1.27,1.56-1.94,2.34s-1.22,1.37-1.64,1.79a15.87,15.87,0,0,1-1,1.32l-1.4,1.71c-.46.57-1.06,1.27-1.79,2.1q0,.16-.54.54a7.1,7.1,0,0,0-.7.55,8.9,8.9,0,0,1-.78,1.09,8.9,8.9,0,0,0-.78,1.09,12.12,12.12,0,0,1-1.24,1.55,7.85,7.85,0,0,1-1.4,1.4,7.37,7.37,0,0,0-.94,1.56,6.66,6.66,0,0,1-.93,1.55c-.21.32-.7,1-1.48,2.11s-1.27,1.78-1.47,2.09a11.72,11.72,0,0,0-1.17,1.72c-.57.93-1.22,1.92-1.95,2.95s-1.37,2-1.94,3-.91,1.5-1,1.71a4.09,4.09,0,0,0-1,1,3.6,3.6,0,0,0-.7,1,23.76,23.76,0,0,0-1.95,2.88,15,15,0,0,0-1.16,2.1,18.87,18.87,0,0,0-1.09,3.89,1,1,0,0,0-.55.15.69.69,0,0,1-.39.16,6.61,6.61,0,0,1-.62.54c-.31.27-.47.45-.47.55-.52,1.24-.93,2.26-1.24,3s-.6,1.54-.86,2.26-.44,1.3-.54,1.71a2.57,2.57,0,0,1-.08.62,2.72,2.72,0,0,0-.08.63c-.21.31-.49.77-.85,1.4s-.73,1.27-1.09,1.94-.68,1.3-.93,1.87a4.72,4.72,0,0,1-.55,1,2.26,2.26,0,0,1-.62.46,4.28,4.28,0,0,0-.54.32.8.8,0,0,1-.4.15c-.52.31-1.21.76-2.1,1.32a8.12,8.12,0,0,1-1.47.86h-6.23a1.65,1.65,0,0,0-.85.39,2.07,2.07,0,0,0-.7.7,4.32,4.32,0,0,1-.47,1c-.31.57-.65,1.17-1,1.79s-.73,1.24-1.09,1.87a8,8,0,0,0-.7,1.4,3.62,3.62,0,0,0-.47.93c-.2.52-.44,1.06-.69,1.63s-.5,1.12-.71,1.64-.36.88-.46,1.09c-.21.41-.73,1.37-1.56,2.87s-1.4,2.52-1.71,3c-.1,0-.47,0-1.09.15a10.18,10.18,0,0,1-1.09.16,3.08,3.08,0,0,1-1.24-.16,1.45,1.45,0,0,1-.63-.15.94.94,0,0,1-.62-.31.9.9,0,0,1-.31-.63c0-.1,0-.38-.07-.85a2.71,2.71,0,0,1,.07-1.17,3,3,0,0,1,.39-1.09l.54-1.09a7.13,7.13,0,0,1,.55-1.63c.36-.88.78-1.84,1.24-2.88s.88-2,1.25-2.95a6,6,0,0,1,.86-1.72l2.48-6.22a5.12,5.12,0,0,1,.47-1.09c.31-.62.67-1.32,1.09-2.1l1.17-2.25c.36-.73.64-1.3.85-1.71a4.91,4.91,0,0,1,.47-1.09c.31-.63.67-1.3,1.09-2s.78-1.37,1.09-1.94.51-1,.62-1.17v-.46a1.11,1.11,0,0,1,.16-.47c.31-.52.87-1.4,1.71-2.65s1.68-2.59,2.56-4,1.71-2.8,2.49-4,1.33-2.12,1.64-2.64c.2-.31.62-1,1.24-2s1.27-2.15,1.95-3.35,1.34-2.36,2-3.5,1.17-2,1.48-2.64a13.46,13.46,0,0,0,.85-1.4,13.06,13.06,0,0,0,.86-1.71q.47-.78,2.1-3.66c1.09-1.92,2.3-4,3.65-6.15s2.59-4.2,3.74-6.06,1.86-3.06,2.17-3.58c.42-.83,1-1.87,1.72-3.11s1.42-2.49,2.1-3.74,1.26-2.3,1.79-3.19.82-1.32.93-1.32a2.63,2.63,0,0,1,.08-.54,3.2,3.2,0,0,0,.07-.55v-.46a1.11,1.11,0,0,1,.16-.47,16.75,16.75,0,0,0-1.48,1.94c-.67,1-1.4,2-2.18,3.12s-1.53,2.12-2.25,3.11a15.49,15.49,0,0,0-1.4,2.1,5.67,5.67,0,0,0-.62.93c-.32.52-.65,1.07-1,1.63s-.67,1.12-.93,1.64a4.82,4.82,0,0,1-.54.93,20.21,20.21,0,0,0-1.64,2.1,9.39,9.39,0,0,1-1.63,1.95c-.21.31-.65.85-1.32,1.63s-1.12,1.27-1.33,1.48a1.23,1.23,0,0,0,.32.54c.2.26.36.44.46.55l-.15.46v.47a8.38,8.38,0,0,0-.86,1.09,5.36,5.36,0,0,0-.7,1.24l-.47-2.33-1.39,1.09q-.63.93-2.34,3.27l-3.65,5c-1.3,1.77-2.52,3.45-3.66,5.06s-2,2.72-2.49,3.35l-14.16,16.33c-.21.31-.57.78-1.09,1.4l-1.63,1.95c-.57.67-1.12,1.29-1.63,1.86s-.83.91-.94,1a27.46,27.46,0,0,0-2,1.87c-.83.83-1.66,1.69-2.49,2.57s-1.61,1.68-2.33,2.41l-1.4,1.4-11.67,10.27a10.33,10.33,0,0,0-1.09.7l-1.79,1.24c-.67.47-1.35.91-2,1.32s-1.17.73-1.48.94a14.62,14.62,0,0,1-1.79,1.09l-2.33,1.24c-.78.42-1.45.8-2,1.17a3.92,3.92,0,0,1-1,.54,11.68,11.68,0,0,0-2.18.47,11,11,0,0,1-2.49.47,9.35,9.35,0,0,0-1.64.23c-.77.15-1.63.28-2.56.39s-1.82.2-2.65.31a17.1,17.1,0,0,1-1.86.15h-3.12a13.76,13.76,0,0,1-2.72-.46,17.65,17.65,0,0,1-2.25-.62,8.13,8.13,0,0,1-2.73-1.17c-1.4-.78-2.46-1.32-3.19-1.63-.1-.32-.54-.7-1.32-1.17a4.06,4.06,0,0,1-1.32-1,4.19,4.19,0,0,1-1-1.09,2.45,2.45,0,0,1-.55-1.09,25.31,25.31,0,0,1-1.24-2.41,14.09,14.09,0,0,1-1.09-2.72,4.76,4.76,0,0,0-.23-1.09,13.55,13.55,0,0,1-.39-1.64c-.11-.57-.18-1.09-.24-1.55s-.07-.75-.07-.86,0-.57.07-1.4.13-1.71.24-2.64.2-1.87.31-2.8.15-1.66.15-2.18a3.08,3.08,0,0,0,.24-.93c0-.42.08-.68.08-.78a2.37,2.37,0,0,1,.31-.94,1.38,1.38,0,0,0,.15-.62c.1-.21.26-.59.47-1.17s.44-1.19.7-1.86.49-1.33.7-1.95.36-1.09.47-1.4l2-3.89a2.25,2.25,0,0,1,.08-.62,2.11,2.11,0,0,0,.07-.47c.31-.51.88-1.52,1.72-3s1.71-3.08,2.64-4.74,1.81-3.22,2.64-4.67,1.4-2.49,1.72-3.11l4.35-6.23c.31-.41.78-1,1.4-1.71s1.25-1.47,1.87-2.25,1.17-1.48,1.63-2.1a4,4,0,0,1,1-1.09l.78-.7c.42-.36.88-.75,1.4-1.17l1.56-1.24a4.39,4.39,0,0,1,1.24-.78,10.51,10.51,0,0,1,1.71-1.25,14.79,14.79,0,0,1,2-1.09c.41-.2,1.21-.54,2.41-1a14.19,14.19,0,0,0,2.25-1l1.79-.54a8.72,8.72,0,0,1,1.64-.39c.1,0,.59,0,1.47-.08s1.69-.08,2.42-.08c.51,0,1.19,0,2,.08s1.34.08,1.55.08a5.7,5.7,0,0,1,1.4.39c.73.26,1.19.44,1.4.54s.86.55,1.64,1,1.16.81,1.16,1l3.27,5.14c.21.41.47,1,.78,1.79a6.24,6.24,0,0,0,.62,1.32l.39,1.24a16.37,16.37,0,0,1,.39,1.64c.1.57.21,1.06.31,1.48a5.36,5.36,0,0,1,.16.77,13.72,13.72,0,0,0-.47,2.42,29.16,29.16,0,0,1-.62,3.19q-.32,1.25-.78,3.42a19.85,19.85,0,0,1-.62,2.49c-.63,1.14-1.12,2.1-1.48,2.88s-.78,1.58-1.25,2.41a16.51,16.51,0,0,1-1.16,1.86c-.21.52-.47,1.12-.78,1.79a14.92,14.92,0,0,1-1.09,1.95c-.41.62-.88,1.4-1.4,2.33a11.6,11.6,0,0,1-1.79,1.71c-1,.83-1.63,1.35-1.94,1.56a8,8,0,0,1-1.33.39,11.07,11.07,0,0,1-1.16.23,4.77,4.77,0,0,1,.23-.86,3.43,3.43,0,0,0,.23-1c.21-.31.63-1,1.25-2.1s1.32-2.25,2.1-3.5,1.48-2.43,2.1-3.58,1-1.86,1.24-2.17l.16-.94,2.18-5c0-.1.08-.56.23-1.4s.29-1.45.39-1.86a8.35,8.35,0,0,0,.47-1.87,3,3,0,0,1,.31-1.24c0-.21-.06-.86-.16-2s-.15-1.73-.15-1.94,0-.57-.24-1.09a3.66,3.66,0,0,1-.39-.94l-2-5.44c-.1-.1-.39-.41-.85-.93s-.81-.89-1-1.09a5.06,5.06,0,0,0-1.32-1.17,3.4,3.4,0,0,0-1.32-.7h-6.38c-.52.1-1.5.39-2.95.86a22.63,22.63,0,0,0-2.8,1,10.76,10.76,0,0,0-1.33.93c-.67.52-1.42,1.12-2.25,1.79L212,447.25c-.78.63-1.38,1.15-1.79,1.56-.21.21-.65.7-1.33,1.48a10.18,10.18,0,0,0-1.32,1.79c-.41.52-1,1.32-1.86,2.41l-2.49,3.26c-.84,1.09-1.56,2.08-2.18,3s-1,1.43-1.09,1.63c-.62,1.35-1.14,2.47-1.56,3.35l-1.24,2.64a21.93,21.93,0,0,0-.94,2.26L194,475.72a14.66,14.66,0,0,0-.7,1.71c-.26.73-.52,1.48-.78,2.26s-.49,1.48-.7,2.1a6.2,6.2,0,0,0-.31,1.09c0,.1-.18.88-.55,2.33s-.65,2.55-.85,3.27a6,6,0,0,0-.24,1.24c0,.53-.13,1-.23,1.56s-.21,1.25-.31,1.87c0,.1.13.7.39,1.79a18.41,18.41,0,0,0,.7,2.41l.7,1.48c.36.77.59,1.32.7,1.63,0,.1.13.26.39.47a.84.84,0,0,1,.39.62,13,13,0,0,1,2,1.48c.93.77,1.5,1.27,1.71,1.47a1.7,1.7,0,0,0,.86.63,2.81,2.81,0,0,0,1,.31,20.49,20.49,0,0,0,3.42,1.4c1.56.52,2.38.78,2.49.78h10.58a13.79,13.79,0,0,0,2-.47l2.33-.62c.52-.11,1.22-.29,2.1-.55a6.1,6.1,0,0,0,1.48-.54,15.49,15.49,0,0,0,3-1.32l2.87-1.48,7.63-5.29,1.94-1.48c.88-.67,1.79-1.4,2.72-2.18s1.82-1.53,2.65-2.25a10,10,0,0,0,1.55-1.56,15.11,15.11,0,0,0,1.87-1.63c1-1,1.81-1.74,2.34-2.26.2-.21.67-.72,1.4-1.55s1.19-1.35,1.39-1.56.65-.72,1.33-1.56,1.4-1.71,2.18-2.64,1.5-1.79,2.17-2.57a10.51,10.51,0,0,0,1.17-1.48l5.91-6.37c.21-.21.52-.57.94-1.09s.85-1,1.32-1.56.88-1,1.24-1.48.6-.75.7-.85a18.44,18.44,0,0,0,1.4-1.87l2.34-3.27c.83-1.14,1.6-2.22,2.33-3.26a17,17,0,0,1,1.56-2c.2-.31.8-1.14,1.79-2.48s2.07-2.75,3.26-4.21S284,443.31,285,442s1.58-2.17,1.79-2.49a18,18,0,0,0,1.32-1.55c.57-.73,1.17-1.5,1.79-2.33a22.07,22.07,0,0,0,1.63-2.49c.47-.83.81-1.4,1-1.72l12.45-17.57c.21-.32.7-1,1.48-2.1s1.27-1.79,1.48-2.11a9.87,9.87,0,0,0,1-1.47,9.58,9.58,0,0,0,.85-1.64l3.74-8.24a22.91,22.91,0,0,1,1.63-2.49,16.24,16.24,0,0,0,1.63-2.65l12.14-16.49a5.06,5.06,0,0,1,1.32-1.16,15.13,15.13,0,0,1,1.32-.86l1.09-.15a10.41,10.41,0,0,1-.31,1.63,3.93,3.93,0,0,1-.62,1.63,7.79,7.79,0,0,1-.7,1.48,15.86,15.86,0,0,0-.86,1.79,7.29,7.29,0,0,0-.7,1.32c-.36.78-.77,1.64-1.24,2.57s-.88,1.81-1.24,2.64-.6,1.35-.71,1.56a2.42,2.42,0,0,1-.62,1.09,8.9,8.9,0,0,0-.78,1.09,3,3,0,0,0-.85,1.16c-.37.68-.76,1.4-1.17,2.18s-.83,1.53-1.24,2.26-.68,1.19-.78,1.4a3.77,3.77,0,0,1-.47,1.24c-.31.62-.67,1.27-1.09,1.95s-.78,1.32-1.09,1.94l-.62,1.25L314,411.78a8.42,8.42,0,0,1-.85,2,10.61,10.61,0,0,1-1.17,2,2.74,2.74,0,0,1-.62,1.16c-.42.58-.88,1.2-1.4,1.87s-1,1.32-1.48,1.95a9.52,9.52,0,0,0-.85,1.24l-2,4.2v.47l-.15.46c.1,0,.31-.15.62-.46s.52-.47.62-.47a5.23,5.23,0,0,1,.94-1.09c.51-.52,1.08-1.06,1.71-1.63s1.19-1.11,1.71-1.63l1.09-1.09a18.59,18.59,0,0,0,1.63-1.48c.67-.68,1.37-1.32,2.1-1.95s1.71-1.55,2.64-2.49q1.09-.76,4.13-3.11l6.45-5,6.54-5.05,4.51-3.5,1.71-.86a7.79,7.79,0,0,0,1.87-1.16,11.58,11.58,0,0,0,1.24-.55l1.09-.54c.42-.11,1-.29,1.87-.55a7,7,0,0,1,1.71-.39h1.09a1.66,1.66,0,0,0,1.09.63,5.06,5.06,0,0,1,.78.31,7.42,7.42,0,0,1,.54,1.79,18.9,18.9,0,0,0,.7,2.41,4.94,4.94,0,0,1,.39,1.86,2.94,2.94,0,0,1-.08,1.4L353,408.05a6.81,6.81,0,0,1-.15,1.24q-.17.78-.39,1.56c-.16.52-.34,1.19-.55,2-.52,1.25-1,2.26-1.4,3s-.8,1.53-1.16,2.25l-.86,1.71c-.31.63-.88,1.66-1.71,3.11l-2.65,4.67q-1.39,2.49-2.56,4.75c-.78,1.5-1.32,2.51-1.63,3-.11,0-.34.16-.71.47l-.7.62a3.74,3.74,0,0,0-.93,1.4,4.1,4.1,0,0,1-1.09,1.55,3.44,3.44,0,0,1-.15.86,3.17,3.17,0,0,0-.16.86,2.22,2.22,0,0,0-.16.93.66.66,0,0,1-.15.47c-.11.2,0,.41.31.62a8,8,0,0,0,.78.47l5.75,3.11c.11,0,.26.13.47.39a1.18,1.18,0,0,1,.31.54,8.83,8.83,0,0,1,.78,2.1c.31,1.09.52,1.84.62,2.26,0,.21.05.75.16,1.63s.21,1.84.31,2.88.21,2,.31,3,.16,1.51.16,1.71c.2.32.41.68.62,1.09l.31.94a14.06,14.06,0,0,1-.16,1.48c-.1.77-.18,1.68-.23,2.72s-.13,2-.23,2.95-.21,1.66-.31,2.18a1.33,1.33,0,0,0-.16.62,1.8,1.8,0,0,0-.16.78,9.16,9.16,0,0,0-.31,1.71c-.1.21-.28.65-.54,1.33s-.55,1.4-.86,2.17-.59,1.53-.85,2.26a5.82,5.82,0,0,0-.39,1.4c0,.1-.11.6-.31,1.48A10.21,10.21,0,0,0,342,486a3.52,3.52,0,0,1-.39.93c-.26.53-.52,1.07-.78,1.64s-.49,1.11-.7,1.63a3.6,3.6,0,0,1-.47.94,4.2,4.2,0,0,1-.31,1.16c-.21.57-.44,1.22-.7,1.95s-.52,1.4-.78,2a5,5,0,0,1-.54,1.09l-4.82,7.15-1.87,4.05c-.21.21-.57.54-1.09,1a20.74,20.74,0,0,1-1.87,1.48c-.72.52-1.4,1-2,1.55a16.34,16.34,0,0,1-1.4,1.09L318,516.79l-1.17.63a4.06,4.06,0,0,1-1,.46,15.29,15.29,0,0,1-2.1.63l-2.72.62c-.94.2-1.82.39-2.65.54a8.17,8.17,0,0,0-1.55.39h-4.2a3.36,3.36,0,0,0-1.09-.62c-.52-.21-.73-.42-.62-.62l-10.43-12.29a6.27,6.27,0,0,1-.46-1.71,9.46,9.46,0,0,0-.63-2.18,11.32,11.32,0,0,1-.15-2.26,8.64,8.64,0,0,0-.16-2.1,1.39,1.39,0,0,0,.16-.62A2.21,2.21,0,0,1,289.38,496.73ZM203,513.06H205c.88,0,1.85,0,2.88-.08s2-.07,2.88-.07h1.79a13.5,13.5,0,0,0,1.56-.47l1.86-.62a17.15,17.15,0,0,1,2.65-1.17c1.24-.47,2-.75,2.18-.86l2.64-2.17-7,2.17c-.52,0-1.38.06-2.57.16s-2.49.21-3.89.31l-4,.31c-1.25.11-2.08.16-2.49.16Zm99.72-93.19c-.62,0-1,.37-1.16,1.09s.07,1.09.7,1.09.85-.36,1-1.09S303.28,419.87,302.76,419.87Zm1.4-2c-.52,0-.85.34-1,1s0,1,.55,1,.85-.33,1-1S304.68,417.85,304.16,417.85Zm1.72-3c-.53,0-.86.32-1,.94s0,.93.55.93.85-.31,1-.93S306.39,414.89,305.88,414.89Zm1.24-2c-.52,0-.83.34-.93,1s.1,1,.62,1a1,1,0,0,0,1.09-1C308,413.21,307.74,412.87,307.12,412.87Zm10.11-16.64c-.52,0-.85.33-1,1s0,1,.54,1,.86-.34,1-1S317.75,396.23,317.23,396.23Zm1.71-3.12q-.78,0-.93,1c-.11.67.1,1,.62,1s.83-.34.93-1S319.46,393.11,318.94,393.11Zm26.76,9.49a4.3,4.3,0,0,0-1.17.32,5.87,5.87,0,0,0-1.32.62,5.48,5.48,0,0,1-.78.54c-.41.26-.88.57-1.4.94a12.71,12.71,0,0,1-1.55.93l-1.09.54c-.83.63-1.87,1.43-3.11,2.41s-2.47,1.9-3.66,2.73-2.67,1.92-4.43,3.26l-.31.94,1-.55a16.61,16.61,0,0,0,1.48-.93c.51-.36,1-.67,1.47-.93a4.38,4.38,0,0,0,.86-.55l2.95-2.33a12.51,12.51,0,0,1,2-1.4q1.54-.93,3.27-2.1c1.13-.78,2.25-1.48,3.34-2.1a23.32,23.32,0,0,0,2.25-1.4Zm-14.62-31.27q.78,0,.54,1.17c-.15.78-.49,1.17-1,1.17s-.7-.39-.54-1.17S330.56,371.33,331.08,371.33Z" transform="translate(-109.85 -319.61)"/></g><g id="Layer_2_copy" data-name="Layer 2 copy"><text class="cls-13" transform="translate(0 227.66) scale(0.91 1)">WeddingBook</text></g><g id="Layer_2" data-name="Layer 2"><text class="cls-14" transform="translate(0 225.66) scale(0.91 1)">WeddingBook</text></g></svg>